<?xml version="1.0" encoding="UTF-8" standalone="no"?>
<svg
   xmlns:dc="http://purl.org/dc/elements/1.1/"
   xmlns:cc="http://creativecommons.org/ns#"
   xmlns:rdf="http://www.w3.org/1999/02/22-rdf-syntax-ns#"
   xmlns:svg="http://www.w3.org/2000/svg"
   xmlns="http://www.w3.org/2000/svg"
   id="svg8"
   version="1.1"
   viewBox="0 0 210 297"
   height="297mm"
   width="210mm">
  <defs
     id="defs2" />
  <metadata
     id="metadata5">
    <rdf:RDF>
      <cc:Work
         rdf:about="">
        <dc:format>image/svg+xml</dc:format>
        <dc:type
           rdf:resource="http://purl.org/dc/dcmitype/StillImage" />
        <dc:title></dc:title>
      </cc:Work>
    </rdf:RDF>
  </metadata>
  <g
     id="layer1">
    <g
       transform="matrix(1.3621629,0,0,1.3621629,266.72553,-8.0630487)"
       id="g180">
      <rect
         style="fill:#ffffff;fill-opacity:1;stroke-width:0.27506235"
         id="rect157"
         width="44.249237"
         height="36.192139"
         x="-141.63193"
         y="27.38113" />
      <g
         id="g117"
         transform="translate(-218.62647,-14.432554)">
        <path
           style="fill:#d6d6d6;stroke-width:0.26458335"
           d="m 82.853122,237.61008 -10.186458,-0.13702 -0.0093,-33.60209 c -0.0051,-18.48114 -0.03489,-36.66794 -0.06614,-40.4151 l -0.05683,-6.81302 H 59.305205 46.076038 V 116.1616 75.680351 H 59.040622 72.005205 V 48.295977 20.911602 h 27.64896 27.648955 v 27.384375 27.384374 h 13.22917 13.22917 V 116.46368 157.247 l -13.32318,-0.13038 -13.32318,-0.13038 -0.13868,8.71393 c -0.0763,4.79266 -0.0764,22.99149 -2.1e-4,40.44185 l 0.13847,31.72791 -17.03755,-0.0614 c -9.37065,-0.0338 -21.621455,-0.12307 -27.224008,-0.19843 z m 2.843761,-175.225041 0.06564,-6.813021 H 82.32345 78.884377 v 6.887072 6.88707 l 3.373438,-0.07405 3.373438,-0.07405 z m 34.197907,-0.06615 v -6.746875 h -3.30729 -3.30729 v 6.746875 6.746875 h 3.30729 3.30729 z"
           id="path155" />
        <path
           style="fill:#f7d1b2;stroke-width:0.26458335"
           d="m 94.097914,237.67765 -1.322916,-0.0944 0.08127,-3.29624 0.08127,-3.29624 H 89.615123 86.29271 v 3.31175 3.31176 l -6.813021,-0.0706 -6.813021,-0.0706 -0.0071,-33.60209 c -0.0039,-18.48114 -0.03369,-36.66794 -0.06615,-40.4151 l -0.059,-6.81302 H 59.305205 46.076038 V 116.1616 75.680351 H 59.040622 72.005205 V 48.295977 20.911602 h 27.64896 27.648955 v 27.384375 27.384374 h 13.22917 13.22917 v 40.787139 40.78715 l -13.32197,-0.15796 -13.32197,-0.15794 -0.14171,8.78174 c -0.078,4.82996 -0.0783,23.03948 -8e-4,40.4656 l 0.14103,31.68385 h -7.05021 -7.05021 v -3.28452 -3.28452 l -3.10885,-0.0988 c -1.70987,-0.0544 -3.19815,-0.0576 -3.30729,-0.007 -0.10914,0.0504 -0.19844,1.50952 -0.19844,3.24242 v 3.15072 l 2.97656,0.0844 c 1.63711,0.0464 -0.83344,0.0878 -5.4901,0.092 -4.656669,0.004 -9.061981,-0.0349 -9.789586,-0.0868 z m 25.532296,-9.99418 v -3.30729 h -3.175 -3.175 v 3.30729 3.3073 h 3.175 3.175 z m -33.602087,-0.26458 v -3.30729 h -3.307292 -3.307292 v 3.30729 3.30729 h 3.307292 3.307292 z m 26.929787,-9.53106 c -0.041,-0.0369 -1.50333,-0.1101 -3.24958,-0.16277 l -3.175,-0.0958 -0.0742,3.23294 -0.0742,3.23293 3.24923,0.0744 3.24922,0.0743 0.0746,-3.14452 c 0.041,-1.72949 0.041,-3.17468 0,-3.21154 z m -20.108623,2.85033 0.07429,-3.24114 h -3.315435 -3.315436 v 3.31543 3.31544 l 3.241146,-0.0743 3.241146,-0.0743 z m 26.780923,-6.54844 v -3.30729 h -3.15988 -3.15988 l -0.0813,3.30778 -0.0813,3.30777 3.24114,-5.3e-4 3.24115,-4.3e-4 z m -33.602087,-0.26458 v -3.30729 h -3.307292 -3.307292 v 3.30729 3.30729 h 3.307292 3.307292 z m 6.8292,-5.55625 c 0.04528,-1.16417 0.0082,-2.62268 -0.08236,-3.24114 l -0.164682,-1.12448 h -3.158786 -3.158789 v 3.31543 3.31544 l 3.241146,-0.0743 3.241146,-0.0743 z m 20.158297,-0.89275 v -3.1417 l -3.10885,-0.12796 c -1.70987,-0.0704 -3.19815,-0.0783 -3.30729,-0.0177 -0.10914,0.0607 -0.19844,1.53201 -0.19844,3.26967 v 3.15938 h 3.30729 3.30729 z m 6.61459,-6.78017 v -3.30729 h -3.15988 -3.15988 l -0.0813,3.30778 -0.0813,3.30777 3.24114,-5.3e-4 3.24115,-4.3e-4 z m -33.602087,-0.26458 v -3.30729 h -3.307292 -3.307292 v 3.30729 3.30729 h 3.307292 3.307292 z m 6.614583,-6.61458 v -3.30729 h -3.175 -3.175 v 3.30729 3.30729 h 3.175 3.175 z m 20.372914,0.13229 v -3.175 h -3.30729 -3.30729 v 3.175 3.175 h 3.30729 3.30729 z M 85.763539,62.451185 v -6.879167 h -3.439583 -3.439584 v 6.879167 6.879166 h 3.439584 3.439583 z m 34.131251,0 v -6.879167 h -3.30729 -3.30729 v 6.879167 6.879166 h 3.30729 3.30729 z M 86.755727,237.43012 c 0.181901,-0.0734 0.479557,-0.0734 0.661458,0 0.181901,0.0734 0.03307,0.13345 -0.330729,0.13345 -0.363802,0 -0.51263,-0.06 -0.330729,-0.13345 z"
           id="path153" />
        <path
           style="fill:#b2cbb8;stroke-width:0.26458335"
           d="m 94.097914,237.67765 -1.322916,-0.0944 0.08127,-3.29624 0.08127,-3.29624 H 89.615123 86.29271 v 3.31175 3.31176 l -6.789412,-0.0706 -6.789413,-0.0706 -0.0236,-23.61407 -0.0236,-23.61406 h 3.373437 3.373438 v -3.30729 -3.30729 h 6.746875 6.746875 v 3.26981 3.26981 l 3.108855,0.16166 c 1.709869,0.0889 4.686435,0.17054 6.614585,0.18139 l 3.50573,0.0197 v -3.31387 -3.31388 l 0.69987,-0.17566 c 0.38492,-0.0966 2.61735,-0.10054 4.96094,-0.009 2.34358,0.0918 5.12426,0.16858 6.1793,0.17062 l 1.91821,0.004 v 3.30729 3.3073 h 3.57188 3.57187 v 23.6802 23.68021 h -7.01146 -7.01146 v -3.28452 -3.28452 l -3.10885,-0.0988 c -1.70987,-0.0544 -3.19815,-0.0576 -3.30729,-0.007 -0.10914,0.0504 -0.19844,1.50952 -0.19844,3.24242 v 3.15072 l 2.97656,0.0844 c 1.63711,0.0464 -0.83344,0.0878 -5.4901,0.092 -4.656674,0.004 -9.061986,-0.0349 -9.789591,-0.0868 z m 25.532296,-9.99418 v -3.30729 h -3.175 -3.175 v 3.30729 3.3073 h 3.175 3.175 z m -33.602087,-0.26458 v -3.30729 h -3.307292 -3.307292 v 3.30729 3.30729 h 3.307292 3.307292 z m 26.929787,-9.53106 c -0.041,-0.0369 -1.50333,-0.1101 -3.24958,-0.16277 l -3.175,-0.0958 -0.0742,3.23294 -0.0742,3.23293 3.24923,0.0744 3.24922,0.0743 0.0746,-3.14452 c 0.041,-1.72949 0.041,-3.17468 0,-3.21154 z m -20.108623,2.85033 0.07429,-3.24114 h -3.315435 -3.315436 v 3.31543 3.31544 l 3.241146,-0.0743 3.241146,-0.0743 z m 26.780923,-6.54844 v -3.30729 h -3.15988 -3.15988 l -0.0813,3.30778 -0.0813,3.30777 3.24114,-5.3e-4 3.24115,-4.3e-4 z m -33.602087,-0.26458 v -3.30729 h -3.307292 -3.307292 v 3.30729 3.30729 h 3.307292 3.307292 z m 6.8292,-5.55625 c 0.04528,-1.16417 0.0082,-2.62268 -0.08236,-3.24114 l -0.164682,-1.12448 h -3.158786 -3.158789 v 3.31543 3.31544 l 3.241146,-0.0743 3.241146,-0.0743 z m 20.158297,-0.89275 v -3.1417 l -3.10885,-0.12796 c -1.70987,-0.0704 -3.19815,-0.0783 -3.30729,-0.0177 -0.10914,0.0607 -0.19844,1.53201 -0.19844,3.26967 v 3.15938 h 3.30729 3.30729 z m 6.61459,-6.78017 v -3.30729 h -3.15988 -3.15988 l -0.0813,3.30778 -0.0813,3.30777 3.24114,-5.3e-4 3.24115,-4.3e-4 z m -33.602087,-0.26458 v -3.30729 h -3.307292 -3.307292 v 3.30729 3.30729 h 3.307292 3.307292 z m 6.614583,-6.61458 v -3.30729 h -3.175 -3.175 v 3.30729 3.30729 h 3.175 3.175 z m 20.372914,0.13229 v -3.175 h -3.30729 -3.30729 v 3.175 3.175 h 3.30729 3.30729 z m -26.259893,43.48102 c 0.181901,-0.0734 0.479557,-0.0734 0.661458,0 0.181901,0.0734 0.03307,0.13345 -0.330729,0.13345 -0.363802,0 -0.51263,-0.06 -0.330729,-0.13345 z M 101.90312,170.38914 C 88.587966,170.29232 76.562654,170.196 75.180206,170.17511 l -2.513542,-0.038 -0.0019,-3.3737 c -0.0011,-1.85553 -0.03071,-6.38002 -0.06615,-10.05442 l -0.06429,-6.68073 H 59.305205 46.076038 V 112.85431 75.680351 H 59.040622 72.005205 V 48.295977 20.911602 h 27.64896 27.648955 v 27.384375 27.384374 h 13.22917 13.22917 l 1.2e-4,37.372399 1.2e-4,37.37239 -13.36158,-0.0817 -13.36158,-0.0817 -0.0661,6.82859 c -0.0364,3.75573 -0.0661,8.31481 -0.0661,10.13129 0,2.75025 -0.0664,3.30612 -0.39688,3.32315 -0.21828,0.0113 -11.29109,-0.0588 -24.60625,-0.1556 z m 4.23334,-84.368711 V 75.680351 h 6.87916 6.87917 V 65.626185 55.572018 h -3.30729 -3.30729 v 6.886848 6.886844 l -3.50573,-0.07382 -3.50573,-0.07383 -0.0692,-10.252604 -0.0693,-10.252604 h -6.743765 -6.743769 v 10.318749 10.31875 h -3.439583 -3.439584 v -6.879166 -6.879167 h -3.439583 -3.439584 v 10.054167 10.054166 l 7.077605,-7.9e-5 7.077604,-8e-5 -0.0632,10.252684 -0.06321,10.252683 6.611644,0.08747 6.611645,0.08748 z"
           id="path151" />
        <path
           style="fill:#ceb09d;stroke-width:0.26458335"
           d="m 94.16406,237.67545 -1.256771,-0.0991 v -3.2928 -3.29279 h -3.307291 -3.307292 v 3.31175 3.31176 l -6.789412,-0.0706 -6.789413,-0.0706 -0.0236,-23.61407 -0.0236,-23.61406 h 3.373437 3.373438 v -3.30729 -3.30729 h 6.746875 6.746875 v 3.26981 3.26981 l 3.108855,0.16166 c 1.709869,0.0889 4.686429,0.17054 6.614579,0.18139 l 3.50573,0.0197 v -3.31387 -3.31388 l 0.69987,-0.17566 c 0.38492,-0.0966 2.61735,-0.10054 4.96094,-0.009 2.34358,0.0918 5.12427,0.16858 6.1793,0.17062 l 1.91821,0.004 v 3.30729 3.3073 h 3.57188 3.57187 v 23.6802 23.68021 h -7.01146 -7.01146 v -3.27039 -3.27038 l -3.10885,-0.14003 c -1.70987,-0.077 -3.19815,-0.0866 -3.30729,-0.0213 -0.10914,0.0653 -0.19844,1.53327 -0.19844,3.26214 v 3.14342 l 0.99219,0.10378 c 1.26683,0.13252 -11.547911,0.13083 -13.229169,-0.002 z m 25.46615,-9.99198 v -3.30729 h -3.15988 -3.15988 l -0.0813,3.30778 -0.0813,3.30777 3.24114,-5.3e-4 3.24115,-4.3e-4 z m -33.602087,-0.26458 v -3.30729 h -3.307292 -3.307292 v 3.30729 3.30729 h 3.307292 3.307292 z m 26.987497,-6.30968 v -3.26696 l -3.0641,-0.17501 c -1.68527,-0.0962 -3.17355,-0.10737 -3.3073,-0.0247 -0.13375,0.0827 -0.24318,1.56771 -0.24318,3.3001 v 3.14981 l 2.57969,0.0865 c 1.41883,0.0476 2.90711,0.11141 3.30729,0.14187 l 0.7276,0.0554 z m -20.108331,-0.3049 v -3.30729 h -3.307291 -3.307292 v 3.30729 3.30729 h 3.307292 3.307291 z m 26.722921,-6.61459 v -3.30729 h -3.15988 -3.15988 l -0.0813,3.30778 -0.0813,3.30777 3.24114,-5.3e-4 3.24115,-4.3e-4 z m -33.602087,-0.26458 v -3.30729 h -3.307292 -3.307292 v 3.30729 3.30729 h 3.307292 3.307292 z m 26.987497,-6.30968 v -3.26696 l -3.0641,-0.17501 c -1.68527,-0.0962 -3.17355,-0.10737 -3.3073,-0.0247 -0.13375,0.0827 -0.24318,1.56812 -0.24318,3.30102 v 3.15072 l 2.97656,0.0844 c 1.63711,0.0464 3.12539,0.10985 3.30729,0.14096 0.24978,0.0427 0.33073,-0.74307 0.33073,-3.21042 z m -20.108331,-0.3049 v -3.30729 h -3.307291 -3.307292 v 3.30729 3.30729 h 3.307292 3.307291 z m 26.722921,-6.61459 v -3.30729 h -3.30729 -3.3073 v -3.30729 -3.30729 h -1.28299 c -0.70565,0 -2.19393,-0.077 -3.30729,-0.17112 l -2.0243,-0.17111 v 3.32396 3.32395 l 3.15369,0.0883 c 1.73454,0.0486 3.23623,0.17116 3.33709,0.27244 0.10087,0.10128 0.19976,1.61832 0.21975,3.3712 l 0.0363,3.18707 3.24114,0.002 3.24115,0.002 v -3.30729 z m -33.602087,-0.26458 v -3.30729 h -3.307292 -3.307292 v 3.30729 3.30729 h 3.307292 3.307292 z m 6.821164,-6.68073 0.07429,-3.24114 h -3.315435 -3.315436 v 3.31543 3.31544 l 3.241146,-0.0743 3.241146,-0.0743 z m 9.053833,-23.36152 c -13.315154,-0.0968 -25.340466,-0.19304 -26.722914,-0.21381 l -2.513542,-0.0378 0.08945,-3.37392 c 0.0492,-1.85565 0.006,-6.38024 -0.09602,-10.05464 l -0.185471,-6.68073 H 59.275332 46.076038 V 112.9866 75.944934 l 3.373438,-0.0088 c 1.85539,-0.0048 7.689453,-0.0056 12.964583,-0.0019 l 9.591146,0.0071 V 48.426509 20.911602 h 27.64896 27.648955 v 27.523863 27.523863 l 13.22927,-0.07334 13.22926,-0.07334 2e-5,37.306242 3e-5,37.30625 -13.3287,-0.0816 -13.3287,-0.0816 -0.18089,6.43159 c -0.0995,3.53738 -0.14405,8.09661 -0.099,10.13161 0.0695,3.142 0.022,3.70303 -0.31501,3.72003 -0.21828,0.011 -11.29109,-0.0592 -24.60625,-0.15604 z m 4.23334,-84.368711 V 75.680351 h 6.87916 6.87917 V 65.626185 55.572018 h -3.30729 -3.30729 l -0.011,3.373438 c -0.006,1.85539 -0.0358,4.861718 -0.0661,6.680729 l -0.0551,3.307291 -3.33126,0.07374 -3.33126,0.07373 -0.17447,-5.209511 c -0.096,-2.865231 -0.17447,-7.452553 -0.17447,-10.194049 V 48.692852 H 99.389581 92.642706 V 58.87931 69.065768 h -3.439583 -3.439584 v -6.746875 -6.746875 h -3.439583 -3.439584 v 10.054167 10.054166 l 7.077605,-7.9e-5 7.077604,-8e-5 -0.0632,10.252684 -0.06321,10.252683 6.611644,0.08747 6.611645,0.08748 z"
           id="path149" />
        <path
           style="fill:#afab98;stroke-width:0.26458335"
           d="m 95.090102,237.67308 -2.182813,-0.0891 v -3.29659 -3.29659 l -2.315104,-0.003 c -1.273307,-0.002 -2.761588,-0.0767 -3.307292,-0.16691 l -0.992187,-0.164 v 3.47867 3.47866 l -6.759551,-0.0706 -6.759555,-0.0706 0.0095,-17.06563 c 0.0052,-9.38609 0.01093,-20.01242 0.01267,-23.61406 l 0.0032,-6.54844 h 3.307292 3.307292 v -3.30729 -3.30729 h 6.746875 6.746875 v 3.44413 3.44412 l 6.68073,-0.0707 6.680736,-0.0707 0.13229,-3.30729 c 0.12885,-3.2213 0.14776,-3.3068 0.72759,-3.28839 0.32744,0.0104 3.33375,0.0402 6.68073,0.0661 l 6.08542,0.0472 v 3.30729 3.3073 l 2.97656,0.004 c 1.63712,0.002 3.21708,0.0682 3.51104,0.14725 0.53042,0.14254 0.53503,0.32119 0.60929,23.67659 l 0.0748,23.53298 h -7.02545 -7.02544 v -3.43958 -3.43958 h -3.322 -3.322 l 0.0809,3.44004 0.0809,3.44005 -4.63021,-0.0543 c -2.546607,-0.0299 -5.612466,-0.0944 -6.813013,-0.14346 z m 24.804688,-9.98961 v -3.30729 h -3.43958 -3.43959 v -3.43958 -3.43958 h 3.43959 3.43958 v -3.3073 -3.30729 h -3.43958 -3.43959 v -3.43958 -3.43958 h 3.43959 3.43958 v -3.3073 -3.30729 h -3.43958 -3.43959 v -3.27044 -3.27043 l -1.38906,-0.16685 c -0.76398,-0.0918 -2.25582,-0.16788 -3.3152,-0.16914 l -1.92613,-0.002 0.074,3.37344 0.074,3.37344 3.24115,0.0743 3.24114,0.0743 v 3.29915 3.29914 h -3.30729 -3.30729 v 3.27644 c 0,3.86322 -0.29243,3.59353 3.9026,3.59912 l 2.71198,0.004 v 3.30729 3.3073 h -3.30729 -3.30729 v 3.43958 c 0,1.89177 0.0893,3.42548 0.19844,3.40825 0.10914,-0.0172 1.59742,-0.0172 3.30729,0 l 3.10885,0.0313 v 3.30729 3.3073 h 3.43959 3.43958 z m -33.866667,-0.26458 v -3.30729 h -3.307292 -3.307292 v 3.30729 3.30729 h 3.307292 3.307292 z m 6.879166,-6.60668 v -3.29939 l -3.373437,-0.074 -3.373438,-0.0741 -0.07405,-3.37343 -0.07405,-3.37344 h -3.299389 -3.299386 v 3.29938 3.29939 l 3.373438,0.074 3.373437,0.074 0.07405,3.37344 0.07405,3.37344 h 3.299388 3.299386 z m 0,-13.49375 v -3.29939 l -3.373437,-0.074 -3.373438,-0.0741 -0.07405,-3.37343 -0.07405,-3.37344 h -3.299389 -3.299386 v 3.29939 3.29938 l 3.373438,0.074 3.373437,0.074 0.07405,3.37344 0.07405,3.37344 h 3.299388 3.299386 z m 0,-13.50165 v -3.30729 h -3.307291 -3.307292 v 3.30729 3.30729 h 3.307292 3.307291 z m -11.443229,-23.61394 -8.665105,-0.0735 -7.93e-4,-5.08961 c -5.29e-4,-2.79929 -0.07877,-7.32204 -0.174125,-10.05056 l -0.173332,-4.96093 H 62.87708 c -5.265493,0 -11.199793,-0.078 -13.187333,-0.17331 l -3.613709,-0.17331 V 112.81329 75.944934 l 3.373438,-0.0088 c 1.85539,-0.0048 7.689453,-0.0056 12.964583,-0.0019 l 9.591146,0.0071 V 48.426509 20.911602 h 27.64896 27.648955 v 27.523863 27.523863 l 13.22927,-0.07334 13.22926,-0.07334 -1e-4,37.240102 -9e-5,37.2401 -13.42761,0.001 -13.4276,0.001 -0.0672,6.67936 c -0.0369,3.67366 -0.0667,8.19742 -0.0661,10.05281 l 0.001,3.37351 -18.3224,-0.0624 c -10.077317,-0.0343 -22.221693,-0.0955 -26.9875,-0.13591 z m 24.67867,-77.258457 c 0.003,-1.85539 0.0332,-6.469062 0.0661,-10.252604 l 0.0599,-6.879166 6.7883,-0.07056 6.78831,-0.07056 0.0909,-3.898186 c 0.05,-2.144003 0.05,-6.666391 -4e-5,-10.04975 l -0.0909,-6.151563 h -3.28254 -3.28253 l -0.011,3.373438 c -0.006,1.85539 -0.0358,4.861718 -0.0661,6.680729 l -0.0551,3.307291 -3.33126,0.07374 -3.33126,0.07373 -0.17447,-5.209511 c -0.096,-2.865231 -0.17447,-7.452553 -0.17447,-10.194049 v -4.98454 H 99.389581 92.642706 V 58.87931 69.065768 h -3.439583 -3.439584 v -6.746875 -6.746875 h -3.439583 -3.439584 v 10.054167 10.054166 h 7.011459 7.011458 l 0.01386,6.945313 c 0.0076,3.819921 0.0019,8.463359 -0.01302,10.318749 l -0.02687,3.373438 h 6.627601 6.6276 l 0.006,-3.373438 z"
           id="path147" />
        <path
           style="fill:#c89371;stroke-width:0.26458335"
           d="m 95.75156,237.6725 -2.844271,-0.0851 v -3.29834 -3.29834 l -1.653645,-0.002 c -0.909506,-0.001 -2.457318,-0.0778 -3.439584,-0.17055 l -1.785937,-0.16867 v -3.26903 -3.26903 h -3.307292 -3.307292 v 3.29938 3.29939 l 3.373438,0.074 3.373437,0.074 0.07405,3.37344 0.07405,3.37344 -5.894883,-0.003 c -3.242188,-0.002 -6.311604,-0.0719 -6.820926,-0.15619 l -0.926042,-0.15324 0.06302,-16.97562 c 0.03466,-9.33659 0.06443,-19.92241 0.06615,-23.52405 l 0.0031,-6.54844 h 3.307292 3.307292 v -3.30729 -3.30729 h 6.746875 6.746875 v 3.44413 3.44412 l 6.68073,-0.0707 6.680733,-0.0707 0.13229,-3.30729 c 0.12885,-3.2213 0.14777,-3.3068 0.7276,-3.28839 0.32743,0.0104 3.33375,0.0402 6.68073,0.0661 l 6.08542,0.0472 v 3.30729 3.3073 l 3.10885,0.004 c 1.70987,0.002 3.26335,0.10206 3.45217,0.22183 0.27514,0.17454 0.37519,4.87589 0.50386,23.67616 l 0.16055,23.45838 h -7.0523 -7.0523 v -3.43958 -3.43958 h -3.30729 -3.30729 v 3.43958 3.43958 l -3.9026,-0.0562 c -2.14644,-0.0309 -5.182533,-0.0945 -6.746882,-0.14124 z m 24.08499,-9.92612 0.074,-3.3702 h -3.44749 -3.44749 v -3.43958 -3.43958 h 3.43959 3.43958 v -3.3073 -3.30729 h -3.43958 -3.43959 v -3.43958 -3.43958 h 3.43959 3.43958 v -3.3073 -3.30729 h -3.43958 -3.43959 v -3.43958 -3.43958 h -3.30729 -3.30729 v 3.43958 3.43958 h 3.30729 3.30729 v 3.30729 3.3073 h -3.30729 -3.30729 v 3.43958 3.43958 h 3.30729 3.30729 v 3.30729 3.3073 h -3.30729 -3.30729 v 3.43958 3.43958 h 3.30729 3.30729 v 3.29863 3.29863 l 2.97657,0.0866 c 1.63711,0.0477 3.15515,0.0798 3.37343,0.0716 0.32718,-0.0124 0.40988,-0.60697 0.47093,-3.38526 z m -26.929261,-6.94207 v -3.30729 l -2.447395,-0.003 c -1.346068,-0.002 -2.893881,-0.0767 -3.439584,-0.16691 l -0.992187,-0.164 v -3.27268 -3.27267 h -3.307292 -3.307292 v 3.29938 3.29939 l 3.373438,0.074 3.373437,0.074 0.07405,3.37344 0.07405,3.37344 h 3.299388 3.299386 z m 0,-13.48585 v -3.29939 l -3.373437,-0.074 -3.373438,-0.0741 -0.07405,-3.37343 -0.07405,-3.37344 h -3.299389 -3.299386 v 3.29939 3.29938 l 3.373438,0.074 3.373437,0.074 0.07405,3.37344 0.07405,3.37344 h 3.299388 3.299386 z m 0,-13.50165 v -3.30729 h -3.307291 -3.307292 v 3.30729 3.30729 h 3.307292 3.307291 z m -11.443229,-23.61394 -8.665105,-0.0735 -0.01423,-6.80941 c -0.0078,-3.74517 -0.0019,-8.26792 0.01333,-10.05055 l 0.02755,-3.24114 h -9.761079 c -5.368593,0 -11.387247,-0.078 -13.374787,-0.17331 l -3.613706,-0.17331 V 112.81329 75.944934 H 59.040622 72.005205 V 48.60139 21.257848 l 3.373438,-0.17205 c 1.855391,-0.09463 14.297422,-0.172533 27.648957,-0.173123 l 24.27552,-0.0011 V 48.434888 75.9582 l 13.22927,-0.07279 13.22926,-0.07279 -1e-4,37.24011 -9e-5,37.2401 H 140.26513 126.7688 l 0.0128,6.68073 c 0.007,3.6744 0.008,8.19877 0.003,10.05417 l -0.0103,3.37343 -18.3224,-0.0624 c -10.077317,-0.0343 -22.221693,-0.0955 -26.9875,-0.13591 z m 24.67867,-77.258457 c 0.003,-1.85539 0.0332,-6.469062 0.0661,-10.252604 l 0.0599,-6.879166 6.77142,-0.07053 6.77143,-0.07053 0.17389,-4.800532 c 0.0956,-2.640293 0.17388,-7.162696 0.17388,-10.049785 v -5.249251 h -3.59993 -3.59993 l 0.0942,6.680729 0.0942,6.680729 -3.37344,0.07405 -3.37344,0.07405 v -4.992439 c 0,-2.745843 -0.0784,-7.333308 -0.17422,-10.194364 l -0.17422,-5.201922 h -6.704945 -6.704949 l -0.01386,6.81302 c -0.0076,3.747162 -0.0019,8.331068 0.01302,10.186458 l 0.02687,3.373438 h -3.452601 -3.452601 v -6.746875 -6.746875 h -3.439583 -3.439584 v 10.054167 10.054166 h 7.011459 7.011459 l 0.01386,6.945313 c 0.0076,3.819921 0.0019,8.463359 -0.01302,10.318749 l -0.02687,3.373438 h 6.627601 6.627604 l 0.006,-3.373438 z"
           id="path145" />
        <path
           style="fill:#18d3cb;stroke-width:0.26458335"
           d="m 95.75156,237.6725 -2.844271,-0.0851 v -3.25952 -3.25952 l -2.024295,-0.17111 c -1.113361,-0.0941 -2.661174,-0.17112 -3.439583,-0.17112 h -1.415288 v -3.30729 -3.30729 h 3.439583 3.439583 v -3.30729 -3.30729 h -1.017688 c -0.559726,0 -2.121783,-0.0784 -3.471235,-0.17416 l -2.453548,-0.17416 0.190969,2.92331 c 0.279331,4.27591 0.481327,4.03959 -3.452786,4.03959 h -3.289462 v 3.29938 3.29939 l 3.373438,0.074 3.373437,0.074 0.07405,3.37344 0.07405,3.37344 -5.894883,-0.003 c -3.242188,-0.002 -6.311604,-0.0719 -6.820926,-0.15616 l -0.926042,-0.15324 0.06897,-23.52405 0.06897,-23.52406 h 3.304469 3.304471 v -3.30729 -3.30729 h 6.746875 6.746875 v 3.43958 3.43959 h 6.746876 6.746871 v -3.3073 -3.30729 h 6.74688 6.74687 v 3.26904 3.26903 l 1.78594,0.16867 c 0.98226,0.0928 2.53008,0.16951 3.43958,0.17055 l 1.65365,0.002 -0.007,3.10885 c -0.004,1.70987 0.0332,12.30644 0.0823,23.54792 l 0.0893,20.43906 h -6.96147 -6.96146 v -3.43958 -3.43958 h -3.3073 -3.30729 v 3.43958 3.43958 l -3.9026,-0.0562 c -2.14643,-0.0309 -5.182523,-0.0945 -6.746872,-0.14124 z m 24.08499,-9.92612 0.074,-3.3702 h -3.44749 -3.44749 v -3.43958 -3.43958 h 3.43959 3.43958 v -3.3073 -3.30729 h -3.43958 -3.43959 v -3.43958 -3.43958 h 3.43959 3.43958 v -3.3073 -3.30729 h -3.43958 -3.43959 v -3.43958 -3.43958 h -3.30729 -3.30729 v 3.43958 3.43958 h 3.30729 3.30729 v 3.30729 3.3073 h -3.30729 -3.30729 v 3.43958 3.43958 h 3.30729 3.30729 v 3.30729 3.3073 h -3.30729 -3.30729 v 3.43958 3.43958 h 3.30729 3.30729 v 3.29863 3.29863 l 2.97657,0.0866 c 1.63711,0.0477 3.15515,0.0798 3.37343,0.0716 0.32718,-0.0124 0.40988,-0.60697 0.47093,-3.38526 z M 86.028123,213.92514 v -3.30729 h 3.439583 3.439583 v -3.30729 -3.30729 l -2.447395,-0.003 c -1.346068,-0.002 -2.893881,-0.0767 -3.439584,-0.16691 l -0.992187,-0.164 v -3.27268 -3.27267 h 3.439583 3.439583 v -3.30729 -3.30729 h -3.453577 -3.453574 l 0.02902,2.97656 c 0.01595,1.63711 0.02225,3.12539 0.014,3.30729 -0.01119,0.24614 -0.860885,0.33073 -3.322318,0.33073 h -3.307291 v 3.30729 3.30729 h 3.278984 c 2.74593,0 3.305093,0.068 3.439583,0.41852 0.20887,0.54431 0.20887,5.49783 0,6.04213 -0.13449,0.35048 -0.693653,0.41852 -3.439583,0.41852 h -3.278987 v 3.30729 3.30729 h 3.307292 3.307292 z m -3.108855,-43.72554 -10.120313,-0.0693 -0.01423,-6.80987 c -0.0078,-3.74544 -0.0019,-8.2684 0.01333,-10.05103 l 0.02755,-3.24114 -3.519058,-0.0264 c -1.935482,-0.0145 -5.002804,-0.074 -6.816271,-0.13229 -1.813465,-0.0582 -6.248543,-0.10589 -9.855727,-0.10589 H 46.076038 V 112.85431 75.944934 H 59.040622 72.005205 V 48.60139 21.257848 l 3.373438,-0.17205 c 1.855391,-0.09463 14.297422,-0.172533 27.648957,-0.173123 l 24.27552,-0.0011 V 48.434888 75.9582 l 13.22927,-0.07279 13.22926,-0.07279 -1e-4,37.24011 -9e-5,37.2401 H 140.26513 126.7688 l 0.0128,6.68073 c 0.007,3.6744 0.008,8.21461 0.003,10.08934 l -0.0103,3.40862 -16.86719,-0.10133 c -9.27695,-0.0557 -21.42133,-0.1325 -26.987502,-0.17061 z M 106.14273,92.944413 c 0.003,-1.85539 0.0332,-6.469062 0.0661,-10.252604 l 0.0599,-6.879166 6.77142,-0.07053 6.77143,-0.07053 0.17389,-4.800532 c 0.0956,-2.640293 0.17388,-7.162696 0.17388,-10.049785 v -5.249251 h -3.59993 -3.59993 l 0.0942,6.680729 0.0942,6.680729 -3.37344,0.07405 -3.37344,0.07405 v -4.992439 c 0,-2.745843 -0.0784,-7.333308 -0.17422,-10.194364 l -0.17422,-5.201922 h -6.704945 -6.704949 l -0.01386,6.81302 c -0.0076,3.747162 -0.0019,8.331068 0.01302,10.186458 l 0.02687,3.373438 h -3.452601 -3.452601 v -6.746875 -6.746875 h -3.439583 -3.439584 v 10.054167 10.054166 h 7.011459 7.011459 v 10.31875 10.31875 h 6.614583 6.614582 l 0.006,-3.373438 z"
           id="path143" />
        <path
           style="fill:#b28c73;stroke-width:0.26458335"
           d="m 95.75156,237.6725 -2.844271,-0.0851 v -3.25952 -3.25952 l -2.024295,-0.17111 c -1.113361,-0.0941 -2.661174,-0.17112 -3.439583,-0.17112 h -1.415288 v -3.30729 -3.30729 h 3.439583 3.439583 v -3.30729 -3.30729 h -1.017688 c -0.559726,0 -2.121783,-0.0784 -3.471235,-0.17416 l -2.453548,-0.17416 0.190969,2.92331 c 0.279331,4.27591 0.481327,4.03959 -3.452786,4.03959 h -3.289462 v 3.29938 3.29939 l 3.373438,0.074 3.373437,0.074 0.07405,3.37344 0.07405,3.37344 -5.894883,-0.003 c -3.242188,-0.002 -6.311604,-0.0719 -6.820926,-0.15616 l -0.926042,-0.15324 0.06897,-23.52405 0.06897,-23.52406 h 3.304469 3.304471 v -3.30729 -3.30729 h 6.746875 6.746875 v 3.43958 3.43959 h 6.746876 6.746871 v -3.3073 -3.30729 h 6.74688 6.74687 v 3.26904 3.26903 l 1.78594,0.16867 c 0.98226,0.0928 2.53008,0.16951 3.43958,0.17055 l 1.65365,0.002 -0.007,3.10885 c -0.004,1.70987 0.0332,12.30644 0.0823,23.54792 l 0.0893,20.43906 h -6.96147 -6.96146 v -3.43958 -3.43958 h -3.3073 -3.30729 v 3.43958 3.43958 l -3.9026,-0.0562 c -2.14643,-0.0309 -5.182523,-0.0945 -6.746872,-0.14124 z m 24.08499,-9.92612 0.074,-3.3702 h -3.44749 -3.44749 v -3.43958 -3.43958 h 3.43959 3.43958 v -3.3073 -3.30729 h -3.43958 -3.43959 v -3.43958 -3.43958 h 3.43959 3.43958 v -3.3073 -3.30729 h -3.43958 -3.43959 v -3.43958 -3.43958 h -3.30729 -3.30729 v 3.43958 3.43958 h 3.30729 3.30729 v 3.30729 3.3073 h -3.30729 -3.30729 v 3.43958 3.43958 h 3.30729 3.30729 v 3.30729 3.3073 h -3.30729 -3.30729 v 3.43958 3.43958 h 3.30729 3.30729 v 3.29863 3.29863 l 2.97657,0.0866 c 1.63711,0.0477 3.15515,0.0798 3.37343,0.0716 0.32718,-0.0124 0.40988,-0.60697 0.47093,-3.38526 z M 86.028123,213.92514 v -3.30729 h 3.439583 3.439583 v -3.30729 -3.30729 l -2.447395,-0.003 c -1.346068,-0.002 -2.893881,-0.0767 -3.439584,-0.16691 l -0.992187,-0.164 v -3.27268 -3.27267 h 3.439583 3.439583 v -3.30729 -3.30729 h -3.453577 -3.453574 l 0.02902,2.97656 c 0.01595,1.63711 0.02225,3.12539 0.014,3.30729 -0.01119,0.24614 -0.860885,0.33073 -3.322318,0.33073 h -3.307291 v 3.30729 3.30729 h 3.278984 c 2.74593,0 3.305093,0.068 3.439583,0.41852 0.20887,0.54431 0.20887,5.49783 0,6.04213 -0.13449,0.35048 -0.693653,0.41852 -3.439583,0.41852 h -3.278987 v 3.30729 3.30729 h 3.307292 3.307292 z m -3.108855,-43.72554 -10.120313,-0.0693 -0.01423,-6.80987 c -0.0078,-3.74544 -0.0019,-8.2684 0.01333,-10.05103 l 0.02755,-3.24114 -3.519058,-0.0264 c -1.935482,-0.0145 -5.002804,-0.074 -6.816271,-0.13229 -1.813465,-0.0582 -6.248543,-0.10589 -9.855727,-0.10589 H 46.076038 V 112.85431 75.944934 H 59.040622 72.005205 V 48.60139 21.257848 l 3.373438,-0.17205 c 1.855391,-0.09463 14.297422,-0.172533 27.648957,-0.173123 l 24.27552,-0.0011 V 48.434888 75.9582 l 13.22927,-0.07279 13.22926,-0.07279 -1e-4,37.24011 -9e-5,37.2401 H 140.26513 126.7688 l 0.0128,6.68073 c 0.007,3.6744 0.008,8.21461 0.003,10.08934 l -0.0103,3.40862 -16.86719,-0.10133 c -9.27695,-0.0557 -21.42133,-0.1325 -26.987502,-0.17061 z M 106.14273,92.944413 c 0.003,-1.85539 0.0332,-6.469062 0.0661,-10.252604 l 0.0599,-6.879166 6.77142,-0.07053 6.77143,-0.07053 0.17389,-4.800532 c 0.0956,-2.640293 0.17388,-7.162696 0.17388,-10.049785 v -5.249251 h -3.57187 -3.57188 v 3.439583 3.439584 h -3.27606 -3.27606 l -0.19475,-6.879167 -0.19475,-6.879166 h -6.711181 -6.711181 l -0.07061,6.81302 -0.07061,6.813021 -3.373437,0.07405 -3.373438,0.07405 V 59.019503 55.572014 H 82.32394 78.884356 v 10.054167 10.054166 h 7.011459 7.011458 v 10.31875 10.31875 h 6.614584 6.614583 l 0.006,-3.373438 z"
           id="path141" />
        <path
           style="fill:#a37457;stroke-width:0.26458335"
           d="m 96.288575,237.66365 -3.365593,-0.074 -0.07399,-3.3656 -0.07399,-3.36559 -3.241146,-0.0743 -3.241146,-0.0743 v -3.29914 -3.29915 h 3.307292 3.307291 v -3.27898 c 0,-2.74594 -0.06804,-3.3051 -0.418515,-3.43959 -0.230182,-0.0883 -1.718463,-0.1606 -3.307292,-0.1606 H 86.29271 v -3.30729 -3.30729 h 3.307292 3.307291 v -3.26903 -3.26903 l -1.785937,-0.16868 c -0.982266,-0.0928 -2.470547,-0.16951 -3.307292,-0.17055 l -1.521354,-0.002 v -3.30729 -3.30729 h 3.307292 3.307291 v -3.30729 -3.30729 H 89.46771 86.028127 v 3.30729 3.30729 h -3.307292 -3.307292 v 3.29915 3.29914 l 3.241146,0.0743 3.241146,0.0743 0.07405,3.37344 0.07405,3.37344 h -3.315194 -3.315198 v 3.30729 3.30729 h 3.307292 3.307292 v 3.43959 3.43958 h -3.307292 -3.307292 v 3.30729 3.30729 h 3.307292 3.307292 v 3.43959 3.43958 h -4.192689 c -2.305976,0 -5.282538,-0.0774 -6.614583,-0.17191 l -2.421896,-0.17191 v -23.5083 -23.5083 h 3.307292 3.307292 v -3.30729 -3.30729 h 6.746875 6.746875 v 3.43958 3.43959 h 6.746876 6.746871 v -3.3073 -3.30729 h 6.74688 6.74687 v 3.27644 c 0,3.87125 -0.31128,3.5936 4.0349,3.59912 l 2.84427,0.004 0.002,3.10885 c 0.001,1.70987 0.0308,12.30646 0.0661,23.54797 l 0.0643,20.4391 -6.94531,-4e-5 -6.94532,-5e-5 v -3.43958 -3.43958 h -3.30729 -3.30729 v 3.45981 3.45981 l -3.37344,-0.0864 c -1.85539,-0.0475 -4.887949,-0.11967 -6.739021,-0.16037 z m 23.606215,-9.84788 v -3.43959 h -3.43958 -3.43959 v -3.45696 -3.45697 l 3.43959,0.18698 3.43958,0.18698 v -3.47689 -3.47689 h -3.43958 -3.43959 v -3.47689 -3.47689 l 3.43959,0.18698 3.43958,0.18698 v -3.45696 -3.45697 h -3.43958 -3.43959 v -3.43958 -3.43958 h -3.30729 -3.30729 v 3.43958 3.43958 h 3.30729 3.30729 v 3.30729 3.3073 h -3.30729 -3.30729 v 3.43958 3.43958 h 3.30729 3.30729 v 3.30729 3.3073 h -3.30729 -3.30729 v 3.43958 3.43958 h 3.30729 3.30729 v 3.2957 3.2957 l 1.91823,0.0913 c 1.05503,0.0502 2.60284,0.11497 3.43959,0.14389 l 1.52135,0.0526 z m -36.975522,-57.61617 -10.120313,-0.0693 -0.01423,-6.80987 c -0.0078,-3.74544 -0.0019,-8.2684 0.01333,-10.05103 l 0.02755,-3.24114 -3.519058,-0.0264 c -1.935482,-0.0145 -5.002804,-0.074 -6.816271,-0.13229 -1.813465,-0.0582 -6.248543,-0.10589 -9.855727,-0.10589 H 46.076038 V 112.85431 75.944934 H 59.040622 72.005205 V 48.574879 21.204822 l 3.638021,-0.0845 c 2.000912,-0.04647 14.442944,-0.117617 27.648964,-0.158095 l 24.01093,-0.0736 V 48.42272 75.956806 l 13.22926,-0.07208 13.22926,-0.07208 -9e-5,37.240104 -9e-5,37.2401 H 140.25438 126.7473 l 0.0276,3.24115 c 0.0152,1.78263 0.0211,6.32283 0.0133,10.08934 l -0.0142,6.8482 -16.86719,-0.10133 c -9.27695,-0.0557 -21.42133,-0.1325 -26.987502,-0.17061 z M 106.14686,92.944413 c 0.006,-1.85539 0.004,-6.439296 -0.003,-10.186458 l -0.0137,-6.813021 3.37676,-0.02212 c 1.85722,-0.01217 4.69199,-0.0038 6.29948,0.01855 1.60749,0.02236 3.2446,-0.04012 3.63802,-0.138864 l 0.71532,-0.179515 V 65.597501 55.572018 h -3.57187 -3.57188 v 3.439583 3.439584 h -3.30729 -3.30729 l -0.0139,-3.505729 c -0.008,-1.928151 -0.002,-5.023776 0.013,-6.879167 l 0.0269,-3.373437 h -6.887721 -6.887718 l -0.07061,6.81302 -0.07061,6.813021 -3.373437,0.07405 -3.373438,0.07405 v -3.447487 -3.447489 h -3.439583 -3.439584 v 10.172896 10.172895 l 3.638021,0.0044 c 2.000912,0.0024 5.156068,0.0085 7.011459,0.01357 l 3.373445,0.0092 v 10.186459 10.186458 h 6.614584 6.614592 l 0.0104,-3.373438 z"
           id="path139" />
        <path
           style="fill:#108783;stroke-width:0.26458335"
           d="m 98.92656,237.67703 -6.019271,-0.0816 v -3.43461 -3.43462 h -3.307291 -3.307292 v -3.30729 -3.30729 h 3.307292 3.307291 v -3.43958 -3.43959 h -3.307291 -3.307292 v -3.30729 -3.30729 h 3.307292 3.307291 v -3.43958 -3.43959 h -3.307291 -3.307292 v -3.30729 -3.30729 h 3.307292 3.307291 v -3.30729 -3.30729 h 6.606678 6.606683 l 0.074,3.37343 0.074,3.37344 3.36642,0.074 c 3.80289,0.0836 3.7081,0.14236 3.53344,-2.19067 -0.0436,-0.58208 -0.0958,-1.862 -0.11611,-2.84427 l -0.0369,-1.78593 h -3.30729 -3.30729 v -3.3073 -3.30729 h 6.60668 6.60668 l 0.074,3.37344 0.074,3.37344 3.50573,0.0738 3.50573,0.0738 0.006,9.84805 c 0.003,5.41642 0.0329,16.00953 0.0662,23.54024 l 0.0605,13.69219 -6.87917,-0.001 -6.87916,-0.001 -0.0568,-3.30596 -0.0568,-3.30598 3.49639,5.3e-4 3.49639,5.3e-4 -0.0808,-3.44005 -0.0809,-3.44018 h -3.42487 -3.42488 v 3.30729 3.3073 h -3.29938 -3.29939 l -0.074,3.37343 -0.074,3.37344 -0.66146,0.0105 c -0.3638,0.006 -3.37013,-0.0262 -6.68073,-0.0711 z m 14.29564,-16.67429 0.0743,-3.24114 3.3653,5.3e-4 3.36529,5.3e-4 -0.0808,-3.44005 -0.0809,-3.44005 h -3.24848 c -1.78667,0 -3.2981,-0.0492 -3.35873,-0.10925 -0.0606,-0.0601 -0.0735,-1.54837 -0.0285,-3.30729 l 0.0817,-3.19817 3.35788,5.3e-4 3.35788,5.3e-4 -0.0808,-3.44005 -0.0809,-3.44018 h -3.42487 -3.42488 v 3.30729 3.3073 h -3.44749 -3.44748 l 0.074,3.37343 0.074,3.37344 3.37344,0.074 3.37343,0.074 v 3.29939 3.29939 h -3.43958 -3.43958 v 3.26319 c 0,1.79476 0.0828,3.34595 0.18391,3.4471 0.10114,0.10115 1.67872,0.15076 3.50573,0.11025 l 3.32182,-0.0737 z m -37.182099,16.39627 -3.241146,-0.074 v -23.58085 -23.58084 l 3.307292,0.16762 3.307292,0.16762 v -3.43862 -3.43863 l 6.680729,0.0707 6.68073,0.0707 0.07429,3.24115 0.07429,3.24114 H 89.47585 86.028123 v 3.43959 3.43958 h -3.307292 -3.307292 v 3.43958 3.43959 h 3.307292 3.307292 v 3.32642 3.32642 l -3.241146,-0.0853 -3.241146,-0.0853 -0.07377,3.33568 -0.07377,3.33568 1.396685,0.16775 c 0.768175,0.0923 2.259888,0.16878 3.314914,0.17005 l 1.91823,0.002 v 3.25944 3.25944 l -3.241146,-0.0183 -3.241146,-0.0183 -0.07405,3.37344 -0.07405,3.37344 2.323008,0.003 c 1.277657,0.002 2.769494,0.0767 3.315197,0.16691 l 0.992188,0.164 v 3.28925 3.28926 l -3.373438,-0.0827 c -1.855391,-0.0455 -4.831953,-0.11605 -6.614584,-0.15678 z m 13.361459,-67.19824 -16.602605,-0.0681 -0.01101,-6.81104 c -0.0061,-3.74608 -0.03582,-8.29933 -0.06615,-10.11834 L 72.666655,149.896 59.371342,149.8274 46.076029,149.7588 V 112.85186 75.944934 H 59.040622 72.005205 V 48.56056 c 0,-15.061406 0.02977,-27.387685 0.06615,-27.39173 0.03638,-0.004 12.478412,-0.08224 27.648959,-0.173767 l 27.582806,-0.166412 v 27.558141 27.558142 h 13.22917 13.22917 v 37.197616 37.19763 l -13.42761,-0.0766 -13.4276,-0.0766 -0.0551,3.29406 c -0.0303,1.81174 -0.0601,6.3692 -0.0662,10.12769 l -0.011,6.83361 -10.3849,-0.0867 c -5.71169,-0.0477 -17.856063,-0.11739 -26.987496,-0.15486 z M 106.40104,86.131393 V 75.944934 l 6.54844,-0.004 c 3.60164,-0.0021 6.69872,-0.09945 6.88239,-0.216048 0.26132,-0.165886 0.31887,-2.395013 0.26459,-10.248553 l -0.0694,-10.036559 -2.91041,-0.07696 c -4.4282,-0.117097 -4.10105,-0.40858 -4.10105,3.653875 v 3.434543 h -3.30729 -3.30729 v -6.879167 -6.879166 h -6.874701 -6.874701 l -0.07061,6.81302 -0.07061,6.813021 -3.373437,0.07405 -3.373438,0.07405 V 59.019553 55.572064 H 82.32394 78.884356 V 65.758522 75.94498 h 7.011459 7.011458 v 10.186459 10.186458 h 6.746876 6.746871 z"
           id="path137" />
        <path
           style="fill:#9c420f;stroke-width:0.26458335"
           d="m 98.92656,237.67703 -6.019271,-0.0816 v -3.43461 -3.43462 h -3.307291 -3.307292 v -3.30729 -3.30729 h 3.307292 3.307291 v -3.43958 -3.43959 h -3.307291 -3.307292 v -3.30729 -3.30729 h 3.307292 3.307291 v -3.43958 -3.43959 h -3.307291 -3.307292 v -3.30729 -3.30729 h 3.307292 3.307291 v -3.30729 -3.30729 h 6.606678 6.606683 l 0.074,3.37343 0.074,3.37344 3.36642,0.074 c 3.80289,0.0836 3.7081,0.14236 3.53344,-2.19067 -0.0436,-0.58208 -0.0958,-1.862 -0.11611,-2.84427 l -0.0369,-1.78593 h -3.30729 -3.30729 v -3.3073 -3.30729 h 6.60668 6.60668 l 0.074,3.37344 0.074,3.37344 3.50573,0.0738 3.50573,0.0738 0.006,9.84805 c 0.003,5.41642 0.0329,16.00953 0.0662,23.54024 l 0.0605,13.69219 -6.87917,-0.001 -6.87916,-0.001 -0.0568,-3.30596 -0.0568,-3.30598 3.49639,5.3e-4 3.49639,5.3e-4 -0.0808,-3.44005 -0.0809,-3.44018 h -3.42487 -3.42488 v 3.30729 3.3073 h -3.29938 -3.29939 l -0.074,3.37343 -0.074,3.37344 -0.66146,0.0105 c -0.3638,0.006 -3.37013,-0.0262 -6.68073,-0.0711 z m 14.29564,-16.67429 0.0743,-3.24114 3.3653,5.3e-4 3.36529,5.3e-4 -0.0808,-3.44005 -0.0809,-3.44005 h -3.24848 c -1.78667,0 -3.2981,-0.0492 -3.35873,-0.10925 -0.0606,-0.0601 -0.0735,-1.54837 -0.0285,-3.30729 l 0.0817,-3.19817 3.35788,5.3e-4 3.35788,5.3e-4 -0.0808,-3.44005 -0.0809,-3.44018 h -3.42487 -3.42488 v 3.30729 3.3073 h -3.44749 -3.44748 l 0.074,3.37343 0.074,3.37344 3.37344,0.074 3.37343,0.074 v 3.29939 3.29939 h -3.43958 -3.43958 v 3.26319 c 0,1.79476 0.0828,3.34595 0.18391,3.4471 0.10114,0.10115 1.67872,0.15076 3.50573,0.11025 l 3.32182,-0.0737 z m -37.182099,16.39627 -3.241146,-0.074 v -23.58085 -23.58084 l 3.307292,0.16762 3.307292,0.16762 v -3.43862 -3.43863 l 6.680729,0.0707 6.68073,0.0707 0.07429,3.24115 0.07429,3.24114 H 89.47585 86.028123 v 3.43959 3.43958 h -3.307292 -3.307292 v 3.43958 3.43959 h 3.307292 3.307292 v 3.32642 3.32642 l -3.241146,-0.0853 -3.241146,-0.0853 -0.07377,3.33568 -0.07377,3.33568 1.396685,0.16775 c 0.768175,0.0923 2.259888,0.16878 3.314914,0.17005 l 1.91823,0.002 v 3.25944 3.25944 l -3.241146,-0.0183 -3.241146,-0.0183 -0.07405,3.37344 -0.07405,3.37344 2.323008,0.003 c 1.277657,0.002 2.769494,0.0767 3.315197,0.16691 l 0.992188,0.164 v 3.28925 3.28926 l -3.373438,-0.0827 c -1.855391,-0.0455 -4.831953,-0.11605 -6.614584,-0.15678 z m 13.361459,-67.19824 -16.602605,-0.0681 -0.01101,-6.81104 c -0.0061,-3.74608 -0.03582,-8.29933 -0.06615,-10.11834 L 72.666655,149.896 59.371342,149.8274 46.076029,149.7588 V 112.85186 75.944934 H 59.040622 72.005205 V 48.56056 c 0,-15.061406 0.02977,-27.387685 0.06615,-27.39173 0.03638,-0.004 12.478412,-0.08224 27.648959,-0.173767 l 27.582806,-0.166412 v 27.558141 27.558142 h 13.22917 13.22917 v 37.197616 37.19763 l -13.42761,-0.0766 -13.4276,-0.0766 -0.0551,3.29406 c -0.0303,1.81174 -0.0601,6.3692 -0.0662,10.12769 l -0.011,6.83361 -10.3849,-0.0867 c -5.71169,-0.0477 -17.856063,-0.11739 -26.987496,-0.15486 z M 106.40104,86.131393 V 75.944934 l 6.54844,-0.004 c 3.60164,-0.0021 6.69872,-0.09945 6.88239,-0.216048 0.26132,-0.165886 0.31887,-2.395013 0.26459,-10.248553 l -0.0694,-10.036559 -6.81302,0.09269 -6.81302,0.09269 v -3.466126 -3.466126 h -6.879167 -6.879167 v 3.439583 3.439583 h -6.879167 -6.879167 v 10.186458 10.186458 h 7.011459 7.011458 v 10.186459 10.186458 h 6.746876 6.746875 z"
           id="path135" />
        <path
           style="fill:#923d0e;stroke-width:0.26458335"
           d="m 98.92656,237.67703 -6.019271,-0.0816 v -3.4694 -3.46941 l 4.29948,0.16054 c 2.364713,0.0883 5.404361,0.16348 6.754781,0.16708 l 2.4553,0.007 -0.074,3.37343 -0.074,3.37344 -0.66146,0.0105 c -0.3638,0.006 -3.37013,-0.0262 -6.68073,-0.0711 z m 14.16455,-3.11572 -0.0568,-3.30596 2.96722,-0.0267 c 1.63198,-0.0147 4.15785,-0.0598 5.61306,-0.10023 1.45521,-0.0405 3.20474,-0.017 3.88786,0.0521 l 1.24202,0.1257 0.0809,3.2823 0.0809,3.28231 -6.87917,-0.002 -6.87916,-0.002 -0.0568,-3.30597 z m -37.058853,2.83764 -3.248991,-0.0741 0.07399,-3.32035 0.07399,-3.32034 5.55625,0.0297 c 3.055938,0.0164 6.002735,0.10056 6.548438,0.18713 l 0.992188,0.15739 v 3.29005 3.29006 l -3.373438,-0.0827 c -1.855391,-0.0455 -4.835483,-0.11607 -6.622428,-0.15683 z m 43.950743,-23.07693 0.002,-10.05417 h 3.39448 3.39448 v 10.05417 10.05416 h -3.39648 -3.39647 l 0.002,-10.05416 z m -26.941519,2.9754 c 0.0011,-3.74653 0.03081,-8.27038 0.06615,-10.05301 l 0.06425,-3.24114 h 6.440366 6.440363 l 0.17163,5.12462 c 0.0944,2.81855 0.0944,7.34292 9e-5,10.05417 l -0.17153,4.92954 -6.506606,-0.001 -6.506605,-0.001 0.0019,-6.81185 z m -20.054409,-0.2635 c 0.0307,-3.74712 0.06047,-8.27146 0.06615,-10.05409 l 0.01032,-3.24115 h 3.175 3.175 v 10.05417 10.05417 l -3.241146,-8e-5 -3.241146,-8e-5 z m 48.825948,-19.5775 -2.18281,-0.0891 v -3.26543 -3.26544 l -6.61459,-0.1946 -6.61458,-0.19461 v -3.27613 -3.27614 h 6.60668 6.60668 l 0.074,3.37344 0.074,3.37344 3.50573,0.0738 3.50573,0.0738 v 3.4319 3.43191 l -1.38907,-0.0539 c -0.76398,-0.0296 -2.37132,-0.094 -3.57187,-0.14299 z m -28.729341,-0.24413 c -0.09701,-0.097 -0.17639,-1.64482 -0.17639,-3.43958 v -3.26319 h 6.599876 6.599875 l 0.0808,3.44004 0.0809,3.44005 -6.504341,-5.3e-4 c -3.577389,-2.5e-4 -6.583718,-0.0798 -6.68073,-0.17685 z m -20.284724,-3.52777 v -3.43959 h 0.885397 c 0.486966,0 1.975247,0.0774 3.307292,0.17191 l 2.421895,0.17192 v 3.26767 3.26767 h -3.307292 -3.307292 z m 6.813022,-3.31781 c -0.109141,-0.11549 -0.198438,-1.67841 -0.198438,-3.47317 v -3.26319 h 5.920052 c 3.256029,0 6.292123,0.0744 6.746876,0.16536 l 0.826822,0.16537 v 3.14193 3.14192 h -1.809668 c -0.995317,0 -3.942114,0.0746 -6.548437,0.16588 -2.606323,0.0912 -4.828067,0.0714 -4.937207,-0.0441 z m 23.614063,-20.27419 c -5.457032,-0.097 -14.505782,-0.15005 -20.108334,-0.11789 l -10.186459,0.0585 -0.01148,-3.32169 c -0.0365,-10.56667 -0.154612,-16.67268 -0.324535,-16.77672 -0.106238,-0.065 -6.096887,-0.1599 -13.312554,-0.21079 l -13.119385,-0.0925 -0.06323,-36.84323 -0.06323,-36.843226 H 59.021017 72.005205 V 48.56056 c 0,-15.061406 0.02977,-27.387685 0.06615,-27.39173 0.03638,-0.004 12.478412,-0.08224 27.648959,-0.173767 l 27.582806,-0.166412 v 27.558141 27.558142 h 13.22917 13.22917 v 37.109876 37.10988 l -13.42761,-0.002 -13.4276,-0.002 -0.0551,3.30729 c -0.0303,1.81901 -0.0601,6.34338 -0.0661,10.05416 l -0.011,6.74688 h -6.81304 c -3.74718,10e-5 -11.27789,-0.0793 -16.73492,-0.17627 z m 3.175,-83.961127 V 75.944934 l 6.54844,-0.004 c 3.60164,-0.0021 6.69872,-0.09945 6.88239,-0.216048 0.26132,-0.165886 0.31887,-2.395013 0.26459,-10.248553 l -0.0694,-10.036559 -6.81302,0.09269 -6.81302,0.09269 v -3.466126 -3.466126 h -6.879167 -6.879167 v 3.439583 3.439583 h -6.879167 -6.879167 v 10.186458 10.186458 h 7.011459 7.011458 v 10.186459 10.186458 h 6.746876 6.746875 z"
           id="path133" />
        <path
           style="fill:#664213;stroke-width:0.26458335"
           d="m 98.92656,237.67703 -6.019271,-0.0816 v -3.30232 -3.30232 h 6.754781 6.75478 l -0.074,3.37343 -0.074,3.37344 -0.66146,0.0105 c -0.3638,0.006 -3.37013,-0.0262 -6.68073,-0.0711 z m 14.16455,-3.11572 -0.0568,-3.30596 h 6.8547 6.85471 l 0.0813,3.30777 0.0813,3.30778 -6.87917,-0.002 -6.87916,-0.002 -0.0568,-3.30597 z m -37.051009,2.8377 -3.241146,-0.074 v -3.29939 -3.29939 l 5.622397,0.003 c 3.092317,0.002 6.06888,0.0767 6.614583,0.16691 l 0.992188,0.164 v 3.28925 3.28926 l -3.373438,-0.0827 c -1.855391,-0.0455 -4.831953,-0.11605 -6.614584,-0.15678 z m 43.796449,-43.38376 -0.074,-3.37344 -6.68073,-0.0707 -6.68073,-0.0707 v -3.30275 -3.30275 h 6.60668 6.60668 l 0.074,3.37344 0.074,3.37344 3.50573,0.0738 3.50573,0.0738 v 3.29961 3.29961 h -3.43168 -3.43168 z m -45.913115,2.91512 -1.12448,-0.10128 v -3.11569 c 0,-1.71363 0.04916,-3.1653 0.109252,-3.22593 0.06009,-0.0606 1.548371,-0.0735 3.307292,-0.0285 l 3.19804,0.0817 v 3.29174 3.29173 l -2.182813,-0.0462 c -1.200546,-0.0254 -2.688828,-0.0918 -3.307291,-0.1475 z m 18.983854,-3.11356 v -3.30729 h 6.614584 6.614587 v 3.30729 3.30729 h -6.614587 -6.614584 z m -13.49375,-6.87917 v -3.30729 l 4.167188,0.001 c 2.291953,8e-4 5.328047,0.0782 6.746875,0.1722 l 2.579687,0.17083 v 3.13509 3.1351 h -6.746875 -6.746875 v -3.30729 z m 20.165542,-20.17448 -0.05721,-3.24114 H 86.160414 72.798955 l 0.0046,-3.50573 c 0.0054,-4.0976 -0.278889,-16.43591 -0.381042,-16.53806 -0.03847,-0.0385 -5.982163,-0.1477 -13.208213,-0.24274 L 46.076038,143.0627 V 109.50381 75.944934 H 59.040622 72.005205 V 48.56056 c 0,-15.061406 0.02977,-27.387685 0.06615,-27.39173 0.03638,-0.004 12.478412,-0.08224 27.648959,-0.173767 l 27.582806,-0.166412 v 27.558141 27.558142 h 13.22917 13.22917 V 109.8116 143.67827 H 140.4 127.03854 l -0.0199,2.18281 c -0.0109,1.20055 -0.072,4.14734 -0.1358,6.54844 -0.0638,2.40109 -0.11435,5.9569 -0.11242,7.9018 l 0.004,3.53617 -13.4861,-0.10085 -13.486105,-0.10086 -0.08273,3.17927 -0.08273,3.17926 -0.05721,-3.24115 z M 106.40104,86.131393 V 75.944934 l 6.54844,-0.004 c 3.60164,-0.0021 6.69872,-0.09945 6.88239,-0.216048 0.26132,-0.165886 0.31887,-2.395013 0.26459,-10.248553 l -0.0694,-10.036559 -6.81302,0.09269 -6.81302,0.09269 v -3.466126 -3.466126 h -6.879167 -6.879167 v 3.439583 3.439583 h -6.879167 -6.879167 v 10.186458 10.186458 h 7.011459 7.011458 v 10.186459 10.186458 h 6.746876 6.746875 z"
           id="path131" />
        <path
           style="fill:#672c0b;stroke-width:0.26458335"
           d="m 113.28021,234.56264 v -3.30729 h 6.74687 6.74688 v 3.30729 3.30729 h -6.74688 -6.74687 z m -34.497252,2.84444 -6.054543,-0.0764 0.167563,-1.2225 c 0.09216,-0.67237 0.167561,-2.15837 0.167561,-3.30223 v -2.07974 l 1.918229,8e-4 c 1.055026,5.3e-4 3.972057,0.0787 6.482292,0.17393 l 4.564063,0.17313 v 3.26565 c 0,3.22825 -0.0068,3.26494 -0.595313,3.20472 -0.327422,-0.0335 -3.319857,-0.0953 -6.649852,-0.13735 z m 14.124331,-3.10902 v -3.30729 h 6.614584 6.614587 v 3.30729 3.30729 h -6.614587 -6.614584 z m 26.987501,-40.20105 c 0,-1.81043 -0.10983,-3.35956 -0.24408,-3.44253 -0.13424,-0.083 -3.14057,-0.17929 -6.68072,-0.21405 l -6.43666,-0.0632 0.0813,-3.24114 0.0813,-3.24115 h 6.45926 6.45927 l 0.074,3.37344 0.074,3.37344 3.50573,0.0738 3.50573,0.0738 v 3.29961 3.29961 h -3.43959 -3.43958 z m -45.905209,2.8371 -1.058334,-0.0976 0.0817,-3.16352 0.0817,-3.16352 h 3.159442 3.159443 v 3.30729 3.30729 l -2.182813,-0.0462 c -1.200546,-0.0254 -2.659062,-0.0901 -3.241145,-0.14376 z m 18.917708,-3.1173 v -3.30729 h 5.787761 c 3.18327,0 6.15983,0.0744 6.61458,0.16536 l 0.82683,0.16537 v 3.14192 3.14193 H 99.521873 92.907289 Z M 79.413539,186.896 v -3.34894 l 4.564063,0.17313 c 2.510234,0.0952 5.486797,0.17349 6.614583,0.17393 l 2.050521,8.1e-4 v 3.175 3.175 h -6.614583 -6.614584 z m 17.594792,-23.40193 c -12.660313,-0.0881 -23.286641,-0.17743 -23.614063,-0.19844 l -0.595313,-0.0382 V 153.20327 143.1491 H 59.437497 46.076038 V 109.54951 75.949922 l 13.03073,-0.06864 13.030729,-0.06864 V 48.49447 21.176294 l 6.746875,-0.0016 c 3.710782,-8.69e-4 16.093282,-0.07749 27.516668,-0.170276 l 20.76979,-0.168695 0.006,6.718658 c 0.003,3.695262 0.0328,16.09483 0.0662,27.554595 l 0.0605,20.835937 h 13.22917 13.22917 l 1e-4,33.800517 1.1e-4,33.80053 -13.49386,-0.0801 -13.49385,-0.0801 v 10.17533 10.17533 l -3.37344,-0.0411 c -1.85539,-0.0226 -13.73188,-0.11321 -26.392189,-0.20134 z M 106.40104,86.131393 V 75.944934 h 6.46065 c 3.55336,0 6.64899,-0.07227 6.87917,-0.160599 0.37161,-0.1426 0.41851,-1.302882 0.41851,-10.352357 V 55.24022 l -6.87129,0.194247 -6.87129,0.194243 -0.074,-3.534076 -0.074,-3.534074 -3.83646,0.01446 c -2.11005,0.008 -5.172356,0.03772 -6.805116,0.06615 l -2.968659,0.05168 -0.07405,3.373437 -0.07405,3.373437 -6.813021,0.07061 -6.813021,0.07061 v 10.181992 10.181992 h 6.879167 6.879167 l 0.01386,6.813021 c 0.0076,3.747162 0.0019,8.331068 -0.01302,10.186458 l -0.02687,3.373438 h 6.892184 6.892189 V 86.131393 Z"
           id="path129" />
        <path
           style="fill:#024600;stroke-width:0.26458335"
           d="m 97.008331,163.49407 c -12.660313,-0.0881 -23.286641,-0.17743 -23.614063,-0.19844 l -0.595313,-0.0382 V 153.20327 143.1491 H 59.437497 46.076038 V 109.54951 75.949922 l 13.03073,-0.06864 13.030729,-0.06864 V 48.494472 21.176299 l 6.879167,0.0027 c 3.783542,0.0015 16.166042,-0.07371 27.516666,-0.167097 l 20.6375,-0.169793 0.005,10.155061 c 0.003,5.585283 0.0325,17.98342 0.0661,27.551415 l 0.0611,17.396353 h 13.22917 13.22917 l 1e-4,33.800512 1.1e-4,33.80053 -13.49386,-0.0801 -13.49385,-0.0801 v 10.17533 10.17533 l -3.37344,-0.0411 c -1.85539,-0.0226 -13.73188,-0.11321 -26.392189,-0.20134 z M 106.40104,86.131393 V 75.944934 h 6.46065 c 3.55336,0 6.64899,-0.07227 6.87917,-0.160599 0.37161,-0.1426 0.41851,-1.302882 0.41851,-10.352357 V 55.24022 l -6.87129,0.194247 -6.87129,0.194243 -0.074,-3.534076 -0.074,-3.534074 -6.879169,-0.05074 -6.879167,-0.05074 v 3.490325 3.490322 l -6.813021,0.07061 -6.813021,0.07061 v 10.181992 10.181992 h 6.879167 6.879167 V 86.13139 96.317848 h 6.879167 6.879167 z"
           id="path127" />
        <path
           style="fill:#2b1103;stroke-width:0.26458335"
           d="m 119.8971,160.28087 -0.002,-3.37344 h -3.43958 -3.43959 v -3.29938 -3.29939 l -3.37343,-0.074 -3.37344,-0.074 -0.0706,-6.81302 -0.0706,-6.81302 h 3.44405 3.44405 v -6.762 -6.762 l -3.26807,0.0813 -3.26807,0.0813 -0.17151,-5.13578 c -0.0943,-2.82467 -0.17151,-7.38089 -0.17151,-10.12493 v -4.98916 l -6.548441,0.0708 -6.548438,0.0708 -0.05514,3.30729 c -0.03033,1.81901 -0.06009,4.82534 -0.06615,6.68073 l -0.01101,3.37343 H 89.60033 86.293038 v 10.05417 10.05417 h 3.299386 3.299389 l 0.07405,3.24114 c 0.04073,1.78263 0.03767,4.81873 -0.0068,6.74688 l -0.08086,3.50573 h -3.292581 -3.292583 v 3.43958 3.43958 h -3.439584 -3.439583 v -6.87916 -6.87917 l -3.373438,-3e-5 -3.373438,-2e-5 -0.09635,-20.17446 -0.09635,-20.17445 3.469788,0.0809 3.469789,0.0808 v -3.492783 -3.492785 l -3.307292,0.14283 -3.307292,0.142832 v -3.41163 -3.41163 h -3.307292 -3.307291 l -5.3e-4,-6.680729 -5.29e-4,-6.680729 2.901815,0.08248 c 2.849339,0.08099 2.904089,0.07142 3.027608,-0.529167 0.06919,-0.336407 0.103066,-12.726233 0.07529,-27.532946 l -0.05053,-26.921293 6.879167,0.0027 c 3.783542,0.0015 16.166042,-0.07371 27.516663,-0.167099 l 20.6375,-0.169793 0.005,10.155061 c 0.003,5.585283 0.0325,18.042951 0.0661,27.683706 l 0.0611,17.528646 h 2.91042 2.91042 v 6.614583 6.614583 h -3.175 -3.175 v 3.439584 3.439583 h -3.43959 -3.43958 v 3.307291 3.307285 h 3.43958 3.43959 v 20.24063 20.24062 h -3.42397 c -2.09706,0 -3.49024,0.10723 -3.59497,0.27669 -0.094,0.15217 -0.0845,3.18826 0.0212,6.74687 l 0.19219,6.47019 h 3.40278 3.40278 v 3.41454 3.41454 l -3.43728,-0.0411 -3.43728,-0.0411 -0.002,-3.37344 z M 106.40104,86.131393 V 75.944934 h 6.46065 c 3.55336,0 6.64899,-0.07227 6.87917,-0.160599 0.37161,-0.1426 0.41851,-1.302882 0.41851,-10.352357 V 55.24022 l -6.87129,0.194247 -6.87129,0.194243 -0.074,-3.534076 -0.074,-3.534074 -6.879169,-0.05074 -6.879167,-0.05074 v 3.490325 3.490322 l -6.813021,0.07061 -6.813021,0.07061 v 10.181992 10.181992 h 6.879167 6.879167 V 86.13139 96.317848 h 6.879167 6.879167 z m 45.97136,57.371647 c 0.1819,-0.0734 0.47955,-0.0734 0.66145,0 0.1819,0.0734 0.0331,0.13345 -0.33073,0.13345 -0.3638,0 -0.51263,-0.0601 -0.33072,-0.13345 z"
           id="path125" />
        <path
           style="fill:#033a00;stroke-width:0.26458335"
           d="m 123.26823,163.5889 -3.37344,-0.0827 v -3.29939 -3.29939 h -3.43958 -3.43959 v -3.29938 -3.29939 l -3.37343,-0.074 -3.37344,-0.074 -0.0706,-6.81302 -0.0706,-6.81302 h 3.44405 3.44405 v -6.762 -6.762 l -3.26807,0.0813 -3.26807,0.0813 -0.17151,-5.13578 c -0.0943,-2.82467 -0.17151,-7.37881 -0.17151,-10.12031 v -4.98454 h -6.429379 c -4.315023,0 -6.524887,0.0955 -6.719813,0.29044 -0.21086,0.21086 -0.300977,-0.6953 -0.328909,-3.307289 l -0.03847,-3.59773 h 6.890576 6.890575 v 3.307291 3.307288 h 3.30729 3.30729 v 3.29915 3.29915 l -3.24114,0.0743 -3.24115,0.0743 -0.0128,3.24157 -0.0127,3.24158 0.087,-3.17543 0.087,-3.17543 h 3.16685 3.16686 v 3.29939 3.29939 l 3.37344,0.074 3.37343,0.0741 0.0856,1.5875 c 0.0471,0.87312 0.008,2.33164 -0.0872,3.24114 l -0.17279,1.65365 -3.22008,0.0569 -3.22009,0.0569 3.16487,0.0843 c 2.11505,0.0563 3.23272,0.19104 3.36939,0.40613 0.11248,0.17702 0.23208,3.11982 0.26577,6.53956 0.0346,3.50981 0.0975,4.80614 0.14449,2.97656 l 0.0832,-3.24115 h 3.29914 3.29915 v 6.74688 6.74687 h -3.42397 c -2.09705,0 -3.49023,0.10723 -3.59496,0.27669 -0.094,0.15217 -0.0845,3.18826 0.0212,6.74687 l 0.1922,6.47019 h 3.40278 3.40278 v 3.43959 c 0,1.89177 -0.0298,3.4137 -0.0662,3.38208 -0.0364,-0.0316 -1.58419,-0.0947 -3.43958,-0.1402 z m -13.36146,-13.75828 -3.24115,-0.0832 -0.0566,-3.23301 -0.0566,-3.233 -0.0849,3.02653 c -0.0467,1.6646 -0.025,3.18264 0.0483,3.37344 0.10151,0.26454 0.90465,0.33332 3.38257,0.2897 l 3.24945,-0.0572 z m -3.30957,-11.4998 c -0.0518,-0.91521 -0.0946,-0.23526 -0.0952,1.51099 -5.3e-4,1.74625 0.0419,2.49505 0.0942,1.66401 0.0523,-0.83104 0.0528,-2.25979 0.001,-3.175 z m 11.90853,-1.7262 c -0.69123,-0.0545 -1.82232,-0.0545 -2.51354,0 -0.69123,0.0545 -0.12568,0.0991 1.25677,0.0991 1.38244,0 1.94799,-0.0446 1.25677,-0.0991 z M 106.5972,104.72874 c -0.0518,-0.91521 -0.0946,-0.23526 -0.0952,1.51099 -5.3e-4,1.74625 0.0419,2.49505 0.0942,1.66401 0.0523,-0.83104 0.0528,-2.25979 0.001,-3.175 z m -27.183661,45.29953 v -6.87917 l -3.373438,-3e-5 -3.373437,-2e-5 -0.01728,-20.17446 c -0.0095,-11.09594 0.02135,-14.07249 0.06853,-6.61455 l 0.0858,13.55989 h 3.30491 3.304911 v -6.73897 -6.73897 l 3.373437,-0.074 3.373438,-0.074 0.07429,-3.24114 0.07429,-3.24115 3.233002,5.3e-4 3.233002,5.3e-4 -0.03503,-1.65413 -0.03503,-1.65413 0.167322,1.5875 c 0.09203,0.87313 0.130937,3.10555 0.08647,4.96094 l -0.08086,3.37344 h -3.292581 -3.292583 v 10.05417 10.05416 h 3.292583 3.292581 l 0.08086,3.50573 c 0.04447,1.92815 0.04753,4.96425 0.0068,6.74688 l -0.07404,3.24105 h -3.299389 -3.299386 v 3.43958 3.43958 h -3.439584 -3.439583 z m 11.982056,-6.80931 c -0.758671,-0.0533 -2.068359,-0.0538 -2.910417,-0.001 -0.842057,0.0527 -0.221326,0.0962 1.379403,0.0968 1.600729,5.3e-4 2.289686,-0.0425 1.531014,-0.0958 z m -10.193033,-0.25165 c -0.252966,-0.0662 -0.729216,-0.0686 -1.058334,-0.005 -0.329118,0.0633 -0.122147,0.11747 0.459936,0.1204 0.582083,0.003 0.851363,-0.0488 0.598398,-0.11507 z m 5.021725,-4.63649 c -0.05181,-0.91521 -0.09463,-0.23526 -0.09516,1.51099 -5.29e-4,1.74625 0.04187,2.49505 0.09421,1.66401 0.05234,-0.83104 0.05276,-2.25979 0.0011,-3.175 z m -1.717519,-8.60678 c -0.909505,-0.0517 -2.397786,-0.0517 -3.307291,0 -0.909506,0.0517 -0.165365,0.0939 1.653645,0.0939 1.819011,0 2.563152,-0.0423 1.653646,-0.0939 z m 0,-6.87917 c -0.909505,-0.0517 -2.397786,-0.0517 -3.307291,0 -0.909506,0.0517 -0.165365,0.0939 1.653645,0.0939 1.819011,0 2.563152,-0.0423 1.653646,-0.0939 z m 67.865632,20.65817 c 0.1819,-0.0734 0.47955,-0.0734 0.66145,0 0.1819,0.0734 0.0331,0.13345 -0.33073,0.13345 -0.3638,0 -0.51263,-0.0601 -0.33072,-0.13345 z m -28.9639,-40.50083 c 0.69562,-0.0547 1.76718,-0.054 2.38125,0.002 0.61408,0.0555 0.0449,0.10023 -1.26475,0.0994 -1.30969,-7.9e-4 -1.81211,-0.0462 -1.1165,-0.10089 z m -3.72079,-6.750505 -0.0575,-6.813021 h 3.57187 3.57188 v -3.307291 -3.307292 h -6.87917 -6.87917 v -3.373437 -3.373438 l 2.97657,-0.04242 c 1.63711,-0.02334 4.8669,-0.125698 7.17731,-0.227483 3.05191,-0.134451 4.15113,-0.104759 4.01928,0.108564 -0.12895,0.208647 0.70367,0.293629 2.87685,0.293629 h 3.05833 v 6.614583 6.614583 h -3.175 -3.175 v 3.439584 3.439583 h -3.43168 -3.43168 l -0.0827,3.373437 c -0.0455,1.855394 -0.10858,0.307578 -0.1402,-3.439583 z m 0.13866,-18.245881 c -0.0518,-0.915209 -0.0946,-0.235265 -0.0952,1.510985 -5.2e-4,1.74625 0.0419,2.495056 0.0942,1.664015 0.0523,-0.831043 0.0528,-2.259793 10e-4,-3.175 z M 72.798955,92.91423 v -3.475546 h -3.307291 -3.307292 l -5.29e-4,-6.680729 -5.29e-4,-6.680729 2.946715,0.0833 c 1.84247,0.05209 3.052294,-0.02228 3.228456,-0.198437 0.451063,-0.451065 6.212842,-0.36802 6.677098,0.09623 0.28583,0.285832 0.377976,1.156607 0.377976,3.571875 l -2e-5,3.193899 h -3.307292 -3.307292 v 3.307292 3.307291 h 3.307292 3.307292 v 3.307292 3.307292 H 77.3338 c -1.143854,0 -2.632136,0.07572 -3.307292,0.168253 l -1.227553,0.168257 z m 16.473952,-3.400822 c 0.402182,-0.06082 0.997495,-0.05919 1.322916,0.0036 0.325422,0.0628 -0.0036,0.112559 -0.731242,0.110575 -0.727604,-0.0021 -0.993857,-0.05337 -0.591674,-0.114186 z m -3.054448,-3.577484 c 0.03192,-1.929784 0.06169,-4.907682 0.06615,-6.617552 l 0.0081,-3.108854 h 3.175 3.175 v 6.482291 6.482292 H 89.75393 c -1.588829,0 -3.047344,0.06087 -3.241146,0.13526 -0.284263,0.10912 -0.341151,-0.542914 -0.294325,-3.373437 z M 72.198391,58.813368 c 0.03349,-2.001023 0.06326,-5.09674 0.06615,-6.879371 l 0.0053,-3.241145 h 3.307292 3.307291 v -3.439584 -3.439583 h 3.439584 3.439583 v 3.452407 3.452408 l 3.241146,-0.07897 3.241146,-0.07897 0.074,3.531433 0.074,3.531436 -6.688587,-0.09185 -6.688588,-0.09185 -0.07383,3.50573 -0.07382,3.505729 -3.365759,2.03e-4 -3.365757,2.04e-4 z m 47.960979,0.03233 V 55.24022 l -6.87916,0.194469 -6.87917,0.194466 v -3.576159 -3.576158 l 6.87917,-0.03533 6.87916,-0.03532 v 3.450624 3.450622 h 3.57188 3.57187 v 3.571875 3.571875 h -3.57187 -3.57188 z M 75.643226,27.849009 72.269789,27.774959 v -3.125342 -3.125342 l 4.804915,-0.174045 c 2.642704,-0.09572 8.714891,-0.174045 13.493751,-0.174045 h 8.688835 v 3.424236 3.424236 l -10.120313,-0.0508 c -5.566172,-0.02794 -11.63836,-0.08412 -13.493751,-0.12485 z m 17.195378,-4.886886 c -0.05167,-0.909505 -0.09394,-0.165365 -0.09394,1.653646 0,1.81901 0.04227,2.563151 0.09394,1.653645 0.05166,-0.909505 0.05166,-2.397786 0,-3.307291 z"
           id="path123" />
        <path
           style="fill:#240e02;stroke-width:0.26458335"
           d="m 113.01562,153.42823 v -3.4792 l 2.4219,0.17191 c 1.33204,0.0945 2.87986,0.17191 3.43958,0.17191 h 1.01769 v 3.30729 3.30729 h -3.43958 -3.43959 z m -33.602081,-0.0927 v -3.30729 h 3.307292 3.307292 v -3.28946 c 0,-2.90475 -0.05415,-3.30534 -0.463021,-3.42514 -0.254662,-0.0746 -1.742176,-0.17194 -3.305588,-0.21627 l -2.84257,-0.0806 -0.0017,-3.24115 -0.0017,-3.24114 H 76.106252 72.79896 v -3.30729 -3.3073 h 3.307292 3.307292 v -6.73897 -6.73897 l 3.373438,-0.074 3.373437,-0.074 0.07429,-3.24114 0.07429,-3.24115 h 3.299148 3.299147 v 3.30729 3.30729 h -3.439583 -3.439583 v 3.16686 3.16686 l -3.241146,0.0832 -3.241146,0.0832 3.241146,0.0572 3.241146,0.0572 v 3.29914 3.29915 l -3.241146,0.0832 -3.241146,0.0832 3.241146,0.0572 3.241146,0.0572 v 3.3073 3.30729 h 3.439583 3.439583 v 6.74687 6.74688 h -3.439583 -3.439583 v 3.30729 3.30729 h -3.307292 -3.307292 z m 11.982056,-10.1166 c -0.758671,-0.0533 -2.068359,-0.0538 -2.910417,-0.001 -0.842057,0.0527 -0.221326,0.0962 1.379403,0.0968 1.600729,5.3e-4 2.289686,-0.0425 1.531014,-0.0958 z m -5.171308,-4.88814 c -0.05181,-0.91521 -0.09463,-0.23526 -0.09516,1.51099 -5.29e-4,1.74625 0.04187,2.49505 0.09421,1.66401 0.05234,-0.83104 0.05276,-2.25979 0.0011,-3.175 z m 20.361073,8.12557 c 0.0286,-1.89177 0.0584,-4.83857 0.0661,-6.54844 l 0.0141,-3.10885 h 3.175 3.175 v -10.18646 -10.18646 h -3.24114 l -3.24115,-1e-5 v -6.74687 -6.74688 l 3.24115,1e-5 h 3.24114 v 3.29915 3.29915 l -3.24114,0.0832 -3.24115,0.0832 3.24115,0.0572 3.24114,0.0572 v 3.29939 3.29939 l 3.37344,0.074 3.37344,0.0741 0.0856,1.5875 c 0.0471,0.87312 0.008,2.33164 -0.0872,3.24114 l -0.17278,1.65365 -3.22009,0.0569 -3.22008,0.0569 3.16487,0.0843 c 2.11504,0.0563 3.23271,0.19104 3.36939,0.40613 0.11248,0.17702 0.23207,3.11982 0.26577,6.53956 0.0346,3.50981 0.0975,4.80614 0.14448,2.97656 l 0.0832,-3.24115 h 3.29915 3.29915 v 3.43959 3.43958 h -3.43959 -3.43958 v 3.30729 3.30729 h -3.43958 -3.43959 v 3.15988 3.15988 l -3.24114,0.0813 -3.24115,0.0813 z m 11.92037,-9.85177 c -0.69123,-0.0545 -1.82232,-0.0545 -2.51354,0 -0.69123,0.0545 -0.12568,0.0991 1.25677,0.0991 1.38244,0 1.94799,-0.0446 1.25677,-0.0991 z M 92.724693,108.09181 c 0.0016,-0.87313 0.05088,-1.19842 0.109765,-0.72287 0.05889,0.47555 0.05767,1.18993 -0.0027,1.5875 -0.06037,0.39758 -0.108551,0.008 -0.107066,-0.86463 z m 30.683807,-5.0896 c 0.69562,-0.0547 1.76718,-0.054 2.38125,0.002 0.61408,0.0555 0.0449,0.10023 -1.26475,0.0994 -1.30969,-7.9e-4 -1.81211,-0.0462 -1.1165,-0.10089 z M 92.745507,99.625142 c 5.29e-4,-1.89177 0.04261,-2.630961 0.09365,-1.642641 0.05105,0.988316 0.05067,2.536129 -7.94e-4,3.439579 -0.05151,0.90346 -0.09327,0.0948 -0.09281,-1.796938 z m -3.4726,-10.111734 c 0.402182,-0.06082 0.997495,-0.05919 1.322916,0.0036 0.325422,0.0628 -0.0036,0.112559 -0.731242,0.110575 -0.727604,-0.0021 -0.993857,-0.05337 -0.591674,-0.114186 z m 31.999373,-0.0061 c 0.9759,-0.05076 2.64277,-0.0511 3.70416,-7.93e-4 1.0614,0.05035 0.26293,0.09188 -1.77436,0.09229 -2.03729,5.3e-4 -2.9057,-0.04078 -1.9298,-0.09154 z M 86.218459,85.935924 c 0.03192,-1.929784 0.06169,-4.907682 0.06615,-6.617552 l 0.0081,-3.108854 h 3.175 3.175 v 6.482291 6.482292 H 89.75393 c -1.588829,0 -3.047344,0.06087 -3.241146,0.13526 -0.284263,0.10912 -0.341151,-0.542914 -0.294325,-3.373437 z M 72.798955,79.516809 c 0,-2.151345 -0.09793,-3.307291 -0.280198,-3.307291 -0.154109,0 -0.206613,-0.119063 -0.116677,-0.264584 0.271413,-0.439152 6.181972,-0.338118 6.633483,0.113393 0.28583,0.285832 0.377976,1.156607 0.377976,3.571875 v 3.193899 h -3.307292 -3.307292 z m 40.216665,-0.06614 v -3.373438 l 2.97657,-0.04242 c 1.63711,-0.02334 4.88156,-0.12355 7.20989,-0.22271 3.45681,-0.14722 4.17267,-0.117597 3.90261,0.161483 -0.22814,0.235749 -0.33073,1.351312 -0.33073,3.596145 v 3.254375 h -6.87917 -6.87917 z m 6.81075,-1.44484 c -0.0518,-0.915209 -0.0946,-0.235265 -0.0952,1.510985 -5.2e-4,1.74625 0.0419,2.495056 0.0942,1.664015 0.0523,-0.831043 0.0528,-2.259793 10e-4,-3.175 z M 72.198391,58.813368 c 0.03349,-2.001023 0.06326,-5.09674 0.06615,-6.879371 l 0.0053,-3.241145 h 3.307292 3.307291 v -3.439584 -3.439583 h 3.439584 3.439583 v 3.452407 3.452408 l 3.241146,-0.07897 3.241146,-0.07897 0.07392,3.35606 0.07392,3.356059 -1.132252,0.163081 c -0.622742,0.08969 -3.632568,0.127281 -6.688506,0.08352 l -5.55625,-0.07956 -0.07383,3.50573 -0.07382,3.505729 -3.365759,2.03e-4 -3.365757,2.04e-4 z m 47.960979,0.06594 v -3.571875 h -6.87916 -6.87917 v -3.415297 -3.4153 l 6.87917,-0.03533 6.87916,-0.03532 v 3.450624 3.450622 h 3.57188 3.57187 v 3.571875 3.571875 h -3.57187 -3.57188 z M 75.643226,27.849009 72.269789,27.774959 v -3.125342 -3.125342 l 4.804915,-0.174045 c 2.642704,-0.09572 8.714891,-0.174045 13.493751,-0.174045 h 8.688835 v 3.424236 3.424236 l -10.120313,-0.0508 c -5.566172,-0.02794 -11.63836,-0.08412 -13.493751,-0.12485 z m 17.195378,-4.886886 c -0.05167,-0.909505 -0.09394,-0.165365 -0.09394,1.653646 0,1.81901 0.04227,2.563151 0.09394,1.653645 0.05166,-0.909505 0.05166,-2.397786 0,-3.307291 z"
           id="path121" />
        <path
           style="fill:#010301;stroke-width:0.26458335"
           d="m 72.218352,59.012064 0.08085,-3.440046 h 3.292582 3.292583 v -3.439583 -3.439583 h 6.746876 6.746875 v 3.29108 3.291078 l -1.124479,0.161917 c -0.618464,0.08905 -3.624792,0.126114 -6.68073,0.08236 l -5.55625,-0.07956 -0.07383,3.50573 -0.07382,3.505729 -3.365759,5.29e-4 -3.365757,5.29e-4 0.08085,-3.440046 z M 120.15937,58.87931 v -3.307292 h 3.42447 3.42446 l 0.0813,3.307773 0.0813,3.307773 -3.50573,-5.29e-4 -3.50573,-4.34e-4 z m -13.75833,-6.879167 v -3.307291 h 6.87917 6.87916 v 3.307291 3.307292 h -6.87916 -6.87917 z"
           id="path119" />
      </g>
    </g>
  </g>
</svg>
